<?xml version="1.0" encoding="UTF-8"?>
<!DOCTYPE svg PUBLIC "-//W3C//DTD SVG 1.1//EN" "http://www.w3.org/Graphics/SVG/1.1/DTD/svg11.dtd">
<!-- Creator: CorelDRAW 2021 (64-Bit) -->
<svg xmlns="http://www.w3.org/2000/svg" xml:space="preserve" width="67.8511mm" height="68.1489mm" version="1.1" style="shape-rendering:geometricPrecision; text-rendering:geometricPrecision; image-rendering:optimizeQuality; fill-rule:evenodd; clip-rule:evenodd"
viewBox="0 0 6785.1 6814.88"
 xmlns:xlink="http://www.w3.org/1999/xlink"
 xmlns:xodm="http://www.corel.com/coreldraw/odm/2003">
 <defs>
  <style type="text/css">
   <![CDATA[
    .fil0 {fill:white}
   ]]>
  </style>
 </defs>
 <g id="Layer_x0020_1">
  <metadata id="CorelCorpID_0Corel-Layer"/>
  <g id="_2328508113376">
   <path class="fil0" d="M3539.06 8.27c700.06,-1.96 1401.08,4.56 2100.85,-1.57 242.42,-2.15 244.32,70.33 363.39,189.92 152.22,152.87 711.54,688.27 765.69,785.99 -293.4,-24 -4079.04,-12.03 -4358.24,-6.4 -646.05,12.93 -1111.39,428.44 -1304.59,866.37 -136.3,308.96 -126.82,595.56 -126.82,960.45 0.04,243.22 -30.73,875.63 12.45,1073.74l2802.57 -0.95 -10.47 -964.57 -1839.09 -4.32c0.52,-343.67 -57.61,-632.47 155.38,-834.29 194.58,-184.38 516.64,-131.25 828.79,-131.38 607.22,-0.3 1323.08,-34.26 1917.1,4.1 31.9,617.85 3.32,1315.19 3.32,1941.74 -0.02,350.1 48.4,571.68 -170.12,789.5 -219.06,218.33 -438.08,169.92 -789.4,170.06 -1289.79,0.49 -2583.42,-10.37 -3872.86,0.08 -27.95,-308.41 -5.98,-714.53 -6.05,-1033.55 -0.3,-1030.29 -109.84,-1887.48 370.68,-2670.11 233.68,-380.59 629.05,-740.56 1104.11,-941.93 571.39,-242.25 1178.32,-202.91 1840.43,-192.07l0 -0.88 212.9 0 0 0.07zm-212.9 7.45l-0.12 0.28 0.12 0 0 -0.28z"/>
   <path class="fil0" d="M3440.4 6801.69l0 0.03 -0.31 -0.02 0.31 -0.01zm-3415 -952.12c89.22,123.17 298.09,311.48 418.2,430.3 144.55,142.97 278.14,272.46 418.31,419.07 112.08,117.18 94.16,117.83 314.7,115.38l2957.01 -0.68c562.44,0.07 962.03,-63.43 1387.5,-298.41 646.17,-356.89 1255,-1084.22 1260.21,-2126.91 5.59,-1119.55 4.66,-2244.39 -0.78,-3364.13 -112.97,50.86 -308.81,276.76 -397.66,365.48 -547.93,547.33 -571.32,439.19 -570.69,879.73 0.33,238.17 0,476.36 0,714.55 -0.06,978.88 154.35,1871.58 -441.42,2444.61 -228.15,219.43 -586.23,414.55 -1039.76,416.55 -476.49,2.06 -952.88,-0.55 -1429.31,-0.41 -564.35,0.17 -2472.19,-28.42 -2876.31,4.87z"/>
  </g>
 </g>
</svg>
